<svg width="1280" height="640" viewBox="0 0 1280 640" xmlns="http://www.w3.org/2000/svg">
  <defs>
    <linearGradient id="grad1" x1="0%" y1="0%" x2="100%" y2="100%">
      <stop offset="0%" style="stop-color:#3B82F6;stop-opacity:1" />
      <stop offset="50%" style="stop-color:#8B5CF6;stop-opacity:1" />
      <stop offset="100%" style="stop-color:#10B981;stop-opacity:1" />
    </linearGradient>
    <linearGradient id="grad2" x1="0%" y1="0%" x2="0%" y2="100%">
      <stop offset="0%" style="stop-color:#111827;stop-opacity:1" />
      <stop offset="100%" style="stop-color:#1F2937;stop-opacity:1" />
    </linearGradient>
    <pattern id="grid" width="40" height="40" patternUnits="userSpaceOnUse">
      <path d="M 40 0 L 0 0 0 40" fill="none" stroke="#374151" stroke-width="0.5" opacity="0.3"/>
    </pattern>
    <filter id="glow">
      <feGaussianBlur stdDeviation="4" result="coloredBlur"/>
      <feMerge>
        <feMergeNode in="coloredBlur"/>
        <feMergeNode in="SourceGraphic"/>
      </feMerge>
    </filter>
  </defs>

  <!-- Background -->
  <rect width="1280" height="640" fill="url(#grad2)"/>
  <rect width="1280" height="640" fill="url(#grid)"/>

  <!-- Circuit board pattern -->
  <g opacity="0.1">
    <path d="M 100 100 L 300 100 L 300 200 L 500 200" stroke="#10B981" stroke-width="2" fill="none"/>
    <circle cx="100" cy="100" r="4" fill="#10B981"/>
    <circle cx="300" cy="100" r="4" fill="#10B981"/>
    <circle cx="300" cy="200" r="4" fill="#10B981"/>
    <circle cx="500" cy="200" r="4" fill="#10B981"/>

    <path d="M 780 150 L 980 150 L 980 250 L 1180 250" stroke="#3B82F6" stroke-width="2" fill="none"/>
    <circle cx="780" cy="150" r="4" fill="#3B82F6"/>
    <circle cx="980" cy="150" r="4" fill="#3B82F6"/>
    <circle cx="980" cy="250" r="4" fill="#3B82F6"/>
    <circle cx="1180" cy="250" r="4" fill="#3B82F6"/>

    <path d="M 200 400 L 400 400 L 400 500 L 600 500" stroke="#8B5CF6" stroke-width="2" fill="none"/>
    <circle cx="200" cy="400" r="4" fill="#8B5CF6"/>
    <circle cx="400" cy="400" r="4" fill="#8B5CF6"/>
    <circle cx="400" cy="500" r="4" fill="#8B5CF6"/>
    <circle cx="600" cy="500" r="4" fill="#8B5CF6"/>
  </g>

  <!-- IoT Icon -->
  <g transform="translate(150, 260)">
    <circle cx="40" cy="40" r="35" fill="none" stroke="url(#grad1)" stroke-width="3" filter="url(#glow)"/>
    <circle cx="40" cy="10" r="5" fill="#10B981"/>
    <circle cx="65" cy="25" r="5" fill="#3B82F6"/>
    <circle cx="65" cy="55" r="5" fill="#8B5CF6"/>
    <circle cx="40" cy="70" r="5" fill="#10B981"/>
    <circle cx="15" cy="55" r="5" fill="#3B82F6"/>
    <circle cx="15" cy="25" r="5" fill="#8B5CF6"/>
    <line x1="40" y1="10" x2="65" y2="25" stroke="#374151" stroke-width="1"/>
    <line x1="65" y1="25" x2="65" y2="55" stroke="#374151" stroke-width="1"/>
    <line x1="65" y1="55" x2="40" y2="70" stroke="#374151" stroke-width="1"/>
    <line x1="40" y1="70" x2="15" y2="55" stroke="#374151" stroke-width="1"/>
    <line x1="15" y1="55" x2="15" y2="25" stroke="#374151" stroke-width="1"/>
    <line x1="15" y1="25" x2="40" y2="10" stroke="#374151" stroke-width="1"/>
    <circle cx="40" cy="40" r="8" fill="#10B981"/>
  </g>

  <!-- Main Title -->
  <text x="280" y="280" font-family="Inter, system-ui, -apple-system, sans-serif" font-size="48" font-weight="bold" fill="white">
    CU-BEMS IoT Analytics Platform
  </text>

  <!-- Subtitle -->
  <text x="280" y="320" font-family="Inter, system-ui, -apple-system, sans-serif" font-size="20" fill="#9CA3AF">
    Bangon Building Energy Management System • 124.9M IoT Sensor Records Analysis
  </text>

  <!-- Stats -->
  <g transform="translate(280, 380)">
    <rect x="0" y="0" width="180" height="80" rx="8" fill="#1F2937" stroke="#374151" stroke-width="1"/>
    <text x="90" y="35" font-family="monospace" font-size="24" font-weight="bold" fill="#10B981" text-anchor="middle">$273,500</text>
    <text x="90" y="55" font-family="Inter, system-ui, -apple-system, sans-serif" font-size="12" fill="#9CA3AF" text-anchor="middle">Annual Savings</text>
  </g>

  <g transform="translate(480, 380)">
    <rect x="0" y="0" width="180" height="80" rx="8" fill="#1F2937" stroke="#374151" stroke-width="1"/>
    <text x="90" y="35" font-family="monospace" font-size="24" font-weight="bold" fill="#3B82F6" text-anchor="middle">124.9M</text>
    <text x="90" y="55" font-family="Inter, system-ui, -apple-system, sans-serif" font-size="12" fill="#9CA3AF" text-anchor="middle">Records Analyzed</text>
  </g>

  <g transform="translate(680, 380)">
    <rect x="0" y="0" width="180" height="80" rx="8" fill="#1F2937" stroke="#374151" stroke-width="1"/>
    <text x="90" y="35" font-family="monospace" font-size="24" font-weight="bold" fill="#8B5CF6" text-anchor="middle">144</text>
    <text x="90" y="55" font-family="Inter, system-ui, -apple-system, sans-serif" font-size="12" fill="#9CA3AF" text-anchor="middle">IoT Sensors</text>
  </g>

  <g transform="translate(880, 380)">
    <rect x="0" y="0" width="180" height="80" rx="8" fill="#1F2937" stroke="#374151" stroke-width="1"/>
    <text x="90" y="35" font-family="monospace" font-size="24" font-weight="bold" fill="#F59E0B" text-anchor="middle">100%</text>
    <text x="90" y="55" font-family="Inter, system-ui, -apple-system, sans-serif" font-size="12" fill="#9CA3AF" text-anchor="middle">Data Quality</text>
  </g>

  <!-- Tech Stack Icons -->
  <g transform="translate(280, 500)">
    <text x="0" y="0" font-family="Inter, system-ui, -apple-system, sans-serif" font-size="14" fill="#6B7280">Built with:</text>
    <text x="70" y="0" font-family="monospace" font-size="14" fill="#3B82F6">Next.js</text>
    <text x="130" y="0" font-family="monospace" font-size="14" fill="#38BDF8">TypeScript</text>
    <text x="220" y="0" font-family="monospace" font-size="14" fill="#06B6D4">React</text>
    <text x="270" y="0" font-family="monospace" font-size="14" fill="#10B981">Supabase</text>
    <text x="350" y="0" font-family="monospace" font-size="14" fill="#8B5CF6">PostgreSQL</text>
    <text x="440" y="0" font-family="monospace" font-size="14" fill="#F59E0B">Python</text>
    <text x="500" y="0" font-family="monospace" font-size="14" fill="#3B82F6">R</text>
  </g>

  <!-- Wave decoration -->
  <path d="M 0 580 Q 320 560 640 580 T 1280 580 L 1280 640 L 0 640 Z" fill="url(#grad1)" opacity="0.1"/>
</svg>